<?xml version="1.0" encoding="UTF-8"?>
<svg width="1600" height="420" viewBox="0 0 1600 420" xmlns="http://www.w3.org/2000/svg" role="img" aria-label="TymMovie`s logo">
  <defs>
    
    <linearGradient id="textGrad" x1="0" y1="0" x2="1" y2="0">
      <stop offset="0%" stop-color="#111827"/>
      <stop offset="100%" stop-color="#374151"/>
    </linearGradient>
    <filter id="softShadow" x="-20%" y="-20%" width="140%" height="140%">
      <feDropShadow dx="0" dy="10" stdDeviation="12" flood-color="#000000" flood-opacity="0.14"/>
    </filter>
  </defs>

  

  <g transform="translate(48 40)" filter="url(#softShadow)">
    
    <g transform="translate(36 28) scale(0.48)">
      <g>
        <g>
          <circle style="fill:#536057;" cx="53.337" cy="140.889" r="43.653"/>
          <polygon style="fill:#EDE8D0;" points="512,192.862 512,422.467 470.122,464.345 51.505,464.345 9.707,422.467 9.707,192.862"/>
          <g>
            <polygon style="fill:#F0E057;" points="111.528,144.713 87.261,192.881 155.473,192.881 179.74,144.713"/>
            <polygon style="fill:#3F3F3F;" points="453.572,192.881 511.945,192.881 511.945,144.713 477.839,144.713"/>
            <polygon style="fill:#6EB9D2;" points="233.632,144.713 209.365,192.881 277.577,192.881 301.844,144.713"/>
            <polygon style="fill:#CEDEF2;" points="355.735,144.713 331.469,192.881 399.68,192.881 423.947,144.713"/>
            <polygon style="fill:#3F3F3F;" points="57.602,144.726 38.829,182.031 33.374,192.862 8.665,192.862 8.665,144.726"/>
            <polygon style="fill:#616C7D;" points="423.947,144.713 399.68,192.881 453.572,192.881 477.839,144.713"/>
            <polygon style="fill:#C03555;" points="301.844,144.713 277.577,192.881 331.469,192.881 355.735,144.713"/>
            <polygon style="fill:#448538;" points="179.74,144.713 155.473,192.881 209.365,192.881 233.632,144.713"/>
            <polygon style="fill:#616C7D;" points="57.636,144.713 33.369,192.881 87.261,192.881 111.528,144.713"/>
          </g>
          <g>
            <polygon style="fill:#CEDEF2;" points="416.371,64.581 349.382,77.738 316.33,35.138 383.238,21.982"/>
            <polygon style="fill:#3F3F3F;" points="56.96,135.34 9.868,144.646 9.306,144.726 0,97.473 23.827,92.74 27.838,91.938 34.337,101.645"/>
            <polygon style="fill:#6EB9D2;" points="296.514,88.168 256,96.11 229.606,101.324 196.472,58.805 256,47.011 263.461,45.568"/>
            <polygon style="fill:#F0E057;" points="176.737,111.754 109.829,124.911 76.696,82.391 143.604,69.154"/>
            <polygon style="fill:#3F3F3F;" points="504.138,47.252 469.4,54.152 468.678,53.43 425.998,13.558 436.106,11.552 489.296,1.042 494.832,0 496.436,8.182"/>
            <polygon style="fill:#616C7D;" points="109.829,124.911 94.987,127.879 56.96,135.34 31.77,103.008 23.827,92.74 27.838,91.938 76.696,82.391"/>
            <polygon style="fill:#448538;" points="229.606,101.324 176.737,111.754 143.604,69.154 196.472,58.805"/>
            <polygon style="fill:#C03555;" points="349.382,77.738 296.514,88.168 263.461,45.568 316.33,35.138"/>
            <polygon style="fill:#616C7D;" points="469.24,54.152 416.371,64.581 383.238,21.982 425.998,13.558 436.106,11.552 468.678,53.43 468.839,53.59"/>
          </g>
          <circle style="fill:#F0E1B7;" cx="23.882" cy="117.874" r="6.125"/>
          <circle style="fill:#F0E1B7;" cx="23.882" cy="169.717" r="6.125"/>
          <rect x="83.144" y="235.66" style="fill:#404441;" width="355.384" height="71.782"/>
          <g>
            <path style="fill:#E3354E;" d="M118.012,253.192l-8.825,6.337v7.061l8.825-6.338v28.881h7.862v-35.941H118.012z"/>
            <path style="fill:#E3354E;" d="M138.87,253.192v11.553h7.541v-5.616h11.312l-13.96,30.004h8.584l13.96-30.004v-5.937H138.87z"/>
            <path style="fill:#E3354E;" d="M172.806,281.671v7.461h9.065v-7.461H172.806z"/>
            <path style="fill:#E3354E;" d="M200.965,253.192l-8.744,6.337v7.061l8.744-6.338v28.881h7.862v-35.941H200.965z"/>
            <path style="fill:#E3354E;" d="M244.046,271.563c0.722-0.721,1.364-1.363,1.926-2.006c0.562-0.641,1.043-1.283,1.444-1.925c0.401-0.641,0.722-1.283,0.882-1.925c0.241-0.722,0.321-1.524,0.321-2.406c0-1.605-0.321-3.049-0.963-4.333c-0.641-1.284-1.524-2.406-2.727-3.29c-1.123-0.881-2.487-1.604-4.092-2.086c-1.685-0.481-3.369-0.722-5.295-0.722c-1.845,0-3.61,0.241-5.214,0.722c-1.524,0.482-2.968,1.124-4.172,2.086c-1.123,0.883-2.086,2.006-2.727,3.29c-0.722,1.284-1.043,2.727-1.043,4.413h7.862c0-0.882,0.161-1.605,0.481-2.166c0.321-0.641,0.722-1.123,1.203-1.445c0.481-0.321,1.043-0.641,1.685-0.722c0.642-0.161,1.284-0.24,1.925-0.24c1.685,0,2.969,0.401,3.851,1.203c0.882,0.803,1.364,1.925,1.364,3.29c0,0.802-0.161,1.525-0.562,2.165c-0.321,0.642-0.882,1.365-1.684,2.166l-16.125,15.564v5.937h26.233v-5.937h-16.687L244.046,271.563z"/>
          </g>
          <line style="fill:none;stroke:#616C7D;stroke-width:0.8134;stroke-miterlimit:10;" x1="35.712" y1="342.8" x2="485.96" y2="342.8"/>
          <g>
            <line style="fill:none;stroke:#616C7D;stroke-width:0.8134;stroke-miterlimit:10;" x1="177.814" y1="354.219" x2="177.814" y2="429.26"/>
            <line style="fill:none;stroke:#616C7D;stroke-width:0.8134;stroke-miterlimit:10;" x1="343.858" y1="354.219" x2="343.858" y2="429.26"/>
          </g>
          <polygon style="fill:#BFC6D0;" points="420.038,370.381 425.339,386.698 442.496,386.698 428.616,396.782 433.918,413.098 420.038,403.014 406.158,413.098 411.46,396.782 397.58,386.698 414.736,386.698"/>
        </g>
        <g style="opacity:0.1;">
          <polygon style="fill:#040000;" points="256,192.884 256,464.319 470.098,464.319 511.992,422.435 511.992,192.884"/>
          <polygon style="fill:#040000;" points="469.4,54.152 468.839,53.59 469.24,54.152 416.371,64.581 349.382,77.738 296.514,88.168 256,96.11 256,47.011 263.461,45.568 316.33,35.138 383.238,21.982 425.998,13.558 436.106,11.552 489.296,1.042 494.832,0 496.436,8.182 504.138,47.252"/>
          <polygon style="fill:#040000;" points="331.469,192.881 399.68,192.881 453.572,192.881 511.945,192.881 511.945,144.713 477.839,144.713 423.947,144.713 355.736,144.713 301.844,144.713 256,144.713 256,192.881 277.577,192.881"/>
        </g>
      </g>
    </g>
  </g>

  <g transform="translate(410 104)">
    <text x="0" y="118" font-family="Bebas Neue, Oswald, Anton, Impact, sans-serif" font-size="108" font-weight="800" letter-spacing="-2" fill="#FFFFFF">TymMovie<tspan fill="#FFFFFF">`</tspan>s</text>
    
    
    
  </g>
</svg>
